<!-- icon666.com - MILLIONS vector ICONS FREE --><svg id="svg47" clip-rule="evenodd" fill-rule="evenodd" stroke-linejoin="round" stroke-miterlimit="2" viewBox="0 0 64 64" xmlns="http://www.w3.org/2000/svg" xmlns:svg="http://www.w3.org/2000/svg"><path id="path4" d="m9.094126 21.229988 1.666005 1.111004c-.457001.587002-1.032003 1.261004-1.7490053 2.040006.034.519002.1390005.881003.315001 1.142004.3440011.511001.8880023.627002 1.2950043.860002.421001.240001.771002.534002 1.013003.954003.219001.381001.362001.879003.316001 1.589005-.039.598002-.227001 1.406005-.647002 2.519008 0 0 3.810012 1.524005 3.809012 1.524005 3.011009-.489002 4.908015-.589002 6.156019-.415002 1.078003.149001 1.761005.499002 2.261007.957003.508001.465002.828002 1.065004 1.138003 1.788006.244001.569002.495002 1.232004.960003 1.950006l-1.671005 1.115003c-.541002-.837002-.841003-1.610005-1.127003-2.277007-.210001-.491001-.376002-.918002-.772003-1.199003-.427001-.303001-1.076003-.419002-2.146006-.416002-1.133004.003-2.658009.167001-4.747015.515002-.180001.03-.365001.01-.535002-.058l-5.0000154-2.000006c-.2510007-.100001-.4500013-.296001-.5530017-.545002-.1030003-.249001-.1010003-.529002.005-.777003.4930015-1.150003.7590023-1.972006.8480026-2.579008.049-.333001.063-.551001-.034-.702002-.066-.103-.1740006-.155-.2820009-.216-.1600005-.09-.333001-.171001-.5070016-.262001-.5200016-.271001-1.0390032-.612002-1.4400044-1.209004-.3760012-.560002-.6660021-1.366004-.6660021-2.638008 0-.253001.096-.497002.2690008-.682002.7580024-.812003 1.3580042-1.500005 1.8250057-2.089007z"></path><path id="path8" d="m25.233176 36.563036c.400001.783002.996003 1.657005 2.101007 2.563008.551001-.580002 1.055003-.870003 1.501004-1.009003.716002-.223001 1.352004-.096 1.961006.138.167001.064.331001.136001.495002.202001.19.075.372001.177.578002.127.137-.033.268-.134.424001-.290001.187-.188.442001-.293001.707002-.293001.565002 0 1.162004.283001 1.625005.859003.433001.539002.761002 1.375004.785003 2.338007l-2.063007.687002c.141001-.612002.056-1.181003-.158-1.583005-.019-.036-.045-.074-.074-.111-.268.172001-.526001.276001-.771002.336001-.632002.154001-1.216004.018-1.795005-.214001-.330002-.131-.644002-.353001-1.020004-.308-.366001.043-.713002.374001-1.215003 1.077003-.318001.445001-.934003.552002-1.383005.241001-1.818005-1.259004-2.744008-2.478008-3.33301-3.562011z"></path><path id="path12" d="m35.375207 40.744049c.029.228001.041.466001.034.711002.596001-.105 1.089003-.073 1.499004.034.880003.230001 1.461005.810003 1.891006 1.471005.08.124.155001.251.225001.375001.185-.216001.380001-.422001.584002-.607002 1.025003-.932003 2.268007-1.407004 3.839011-.621002 1.420005.709002 2.053007 1.829006 2.053007 2.894009 0 .612002-.209001 1.243004-.658002 1.803006l1.297004.648002-1.278004 1.598005-2.308007-1.155004c-.339001-.169001-.553002-.515002-.553002-.894003s.214001-.725002.553002-.894003c.582002-.292.947003-.669002.947003-1.106003s-.365001-.814003-.947003-1.106003c-.659002-.329001-1.170004-.077-1.600005.313001-.435002.395001-.805003.914002-1.144004 1.380004-.287001.396001-.819002.526001-1.256004.307001-.437001-.218001-.821002-.769003-1.193003-1.440005-.199001-.360001-.398002-.794002-.823003-.984003-.454001-.203-1.087003-.077-2.090006.424002-.385002.193-.850003.117-1.154004-.187001-.304-.304001-.38-.769002-.187-1.154004.187001-.374001.281001-.748002.304001-1.096003z"></path><path id="path16" d="m55.51327 46.391066c.322001.311001.686002.541002 1.042003.778003.886003.591002 1.749006 1.204003 2.339007 2.385007.155001.310001.139001.678002-.043.973003-.183.295001-.504001.474002-.851002.474002-.507002 0-.904003.031-1.211004.101-.109.025-.238001.08-.299001.107.003.061.011.179001.029.261001.063.290001.185001.617002.325001.977003.486002 1.249004 1.156004 2.818009 1.156004 4.554014 0 .552002-.448002 1.000003-1.000004 1.000003h-3.697011l-2.748008 1.832006c-.307001.205001-.702003.224001-1.027004.05-.325001-.174-.528001-.513001-.528001-.882003 0-4.311013-.919003-5.080015-1.695006-5.964018-.627001-.714002-1.191003-1.481005-1.290004-3.410011l-1.760005-.881002 1.490005-1.490005 1.702005.851003c.339001.169.553002.515001.553002.894002 0 2.083007.634002 2.495008 1.259004 3.22401.705002.823003 1.465004 1.930006 1.681005 4.948016l1.505004-1.004003c.165001-.110001.358001-.168001.555002-.168001h2.913009c-.247001-1.468004-.956003-2.746008-1.246004-3.713011-.314001-1.048004-.206-1.870006.344001-2.446008.220001-.231001.552002-.442001 1.041004-.595002-.199001-.146-.404002-.279001-.607002-.414001-.525002-.350001-1.042004-.708002-1.500005-1.188004z"></path><path id="path20" d="m48.243247 38.632042c.110001.257001.230001.431002.377002.537002.153.112.326001.086.489001.08.283001-.01.563002-.036.831003-.02.545001.03 1.064003.169001 1.507004.655002 1.631005-.281001 2.349008.119001 2.876009.552002.146001.121.277001.251001.408001.381001.135001.136.260001.292001.506002.354001.329001.084.792002.042 1.520005-.14.437001-.109001.892003.086 1.113003.477001.222001.391001.155001.882003-.163 1.200004-1.075004 1.075003-1.161004 1.840006-1.462005 2.464008-.19.393001-.425001.759002-.840002 1.111003.127.134.262.253001.401001.363001l-1.632005 1.225004c-.404002-.377001-.771003-.828003-1.068004-1.423005-.247-.494001-.047-1.094003.447002-1.341004.878003-.440001.932003-.906002 1.178003-1.503004.059-.142001.123001-.290001.197001-.444002-.575002-.103-.945003-.343001-1.251004-.594002-.146-.121-.277001-.251-.408001-.381001-.135-.136-.260001-.292001-.506002-.354001-.329001-.084-.792002-.042-1.520004.140001-.455002.114-.928003-.104001-1.137004-.523002-.045-.09-.082-.159001-.138-.196001-.083-.056-.182001-.03-.279001-.028-.225001.004-.457002.027-.689002.027-.480002 0-.956003-.084-1.411005-.366001-.303001-.188-.617002-.479001-.903002-.955003z"></path><path id="path24" d="m44.392235 25.270001c.753003.403001 1.892006.731002 3.608012.731002.334001 0 .647002.167001.832002.445001.685002 1.028004.796003 1.753006.712002 2.301008-.068.441001-.267.810002-.554001 1.153003-.310001.370001-.829003.668002-1.058004 1.301004-.134.370001-.137.859003.038 1.557005.095.379001-.04.779002-.344002 1.023003-.305001.244001-.724002.289001-1.073003.114001-.811002-.405002-1.618005-.628002-2.429007-.527002-.289001.036-.576002.114-.862003.236001.614002.419001 1.004003 1.013003 1.320004 1.646005.189001.377001.344001.772002.522002 1.131003.147.296001.278.588002.588001.700002.260001.094.599002.066 1.065004-.05.536001-.134 1.079003.192001 1.213004.727003.103.410001.201.724002.311.958003l-1.439004 1.452004c-.192001-.269001-.376001-.609002-.540002-1.044003-.621002.04-1.105003-.066-1.497004-.247001-.614002-.283001-1.039004-.768002-1.370005-1.371004-.21-.383001-.382001-.819003-.584001-1.244004-.306001-.643002-.713003-1.261004-1.851006-1.261004-.404001 0-.769002-.244001-.924003-.617002-.155-.374001-.069-.804002.217001-1.090003 1.190003-1.190004 2.393007-1.762006 3.583011-1.910006.653002-.082 1.306004-.035 1.960006.122.061-.996003.467001-1.628005.902003-2.134006.192-.222001.396001-.415002.580001-.605002.103001-.107001.227001-.185001.249001-.325001.02-.131001-.026-.272001-.125-.451002-1.673005-.063-2.900009-.405001-3.800012-.844002z"></path><path id="path28" d="m37.147213 10.588955c.425001.210001.755002.458002 1.049003.717003.842003.739002 1.238004 1.695005 3.804012 1.695005.552002 0 1.000003.448001 1.000003 1.000003 0 .985003-.193 1.636005-.480001 2.129006-.297001.509002-.706003.864003-1.215004 1.203004-.577002.384001-1.328004.759003-2.095007 1.708006.331001.420001.924003.960003 1.790006.960003.430001 0 .813002.275.949003.684002.136.408001-.005.858002-.349001 1.116003-.465002.348001-.826003.749002-1.014003.975003.108.041.237.086.336001.108.537001.117001 1.078003.117001 1.078003.117001.480001 0 .892003.341001.982003.813002 0 0 .273001 1.014003 1.847006 1.662005l-.628002 1.913006c-.853003-.327001-1.467005-.744002-1.911006-1.150003-.500002-.456002-.807003-.916003-.994003-1.284004-.499002-.053-1.169004-.165001-1.674005-.401001-.679002-.318001-1.104004-.839003-1.165004-1.487005-.033-.346001.034-.761002.319001-1.236004.07-.115.156-.239001.262001-.371001-1.284004-.749002-1.932006-2.012006-1.932006-2.012006-.161001-.321001-.137001-.703002.062-1.002003.903003-1.355005 1.804006-1.990006 2.563008-2.478008.447001-.287001.850003-.459001 1.074003-.868003.026-.048.049-.098.069-.152-1.607005-.164001-2.425008-.685002-3.07001-1.252004-.528002-.464001-.881003-1.013003-1.706005-1.358004z"></path><path id="path32" d="m24.500174 6.601943c.353001-.01.700002.042 1.038003.1120003.218001.045.429001.1000003.634002.1400004.131.025.253001.068.368001.03.078-.026.114-.1170003.177001-.2360007.117-.2170007.218-.5090016.313001-.8900028.087-.349001.356001-.6250019.703002-.7210022.347001-.096.719002.002.974003.2570008 0 0 .395001.3970012.950003.3580011.463001-.034.960003-.3790012 1.511004-1.2060037.265001-.3970013.774003-.5520017 1.215004-.3690012.441002.1830006.691002.6520021.598002 1.1200035-.105.5250016-.104.8950028.043 1.1550036.213001.3760012.667002.4520014 1.073004.5450017.526001.1210004 1.042003.1980006 1.411004.332001.543002.1960006.884003.5230016 1.044003.9180029.147001.3630011.189001.8680026-.182 1.5490048-.081.1490004-.188001.3170015-.327001.5060015v.001c.601001.138001 1.061003.339001 1.441004.571002l-1.124003 1.688005c-.513002-.273001-1.224004-.461001-2.360008-.461001-.404001 0-.769002-.244001-.924003-.617002-.155-.374001-.069-.804003.217001-1.090004.488002-.4890011.871003-.9690026 1.106003-1.2870036-.097-.023-.196-.045-.284-.063-.538002-.1060005-1.126004-.2400009-1.629005-.4940017-.540002-.2720009-.993004-.6700021-1.277004-1.2560039-.501002.2990009-.981003.4220013-1.410005.4520014-.470001.034-.896003-.051-1.259004-.1820006-.261001.5290017-.557001.8520027-.846002 1.0540033-.421002.2950009-.873003.3930012-1.359005.3700011-.347001-.017-.718002-.1100003-1.104003-.1950006-.233001-.051-.479001-.099-.731002-.049z"></path><path id="path36" d="m14.500143 7.3289452c.266001-.007.520001.015.764002.05.362001.053.699002.1470004 1.011003.2220007.125001.03.327001.055.395001.063.029-.041.093-.1340005.130001-.2120007.084-.1800006.159-.4080013.230001-.6940022.093-.3740011.394001-.661002.772002-.7370022.378001-.077.767002.071.998003.3800011.355001.4730015.654002.8020025.921003 1.0150032.139.1100003.245001.1860006.350001.2010006.081.012.132-.056.193001-.097.098-.066.192-.1390004.285001-.2090006.222-.1640005.445001-.310001.675002-.4050013.339001-.1400004.696002-.1870006 1.087003-.096.205001.047.434001.1390004.682002.309001.683002-.4970016 1.358004-.5670018 2.007006-.4940016v2.0220063c-.389001-.063-.807002-.036-1.219003.4790015-.190001.2370007-.477002.3750012-.781003.3750012s-.591002-.1380005-.781002-.3750012c-.100001-.1260004-.233001-.2470008-.312001-.316001-.099.067-.264001.1820006-.368001.2580008-.216001.1570005-.443002.3000009-.688003.3970012-.603001.2420008-1.437004.3390011-2.553007-.643002-.242001.3320011-.503002.5300017-.755003.6530021-.422001.2040006-.885003.2340007-1.398004.1430004-.272001-.049-.567002-.1350004-.882003-.2050006-.236001-.053-.490001-.1010003-.763002-.071z"></path><path id="path40" d="m8.8241252 21.563989c.5340016-.647002.9220028-1.183003 1.1930038-1.636005.325001-.542001.475001-.880002.422001-1.161003-.033-.176001-.156-.297001-.271001-.433002-.165-.193-.3450007-.387001-.5120013-.606002-.5170016-.676002-.965003-1.543004-.7000021-3.104009-.3830012-.713002-.943003-.770003-1.4600046-1.072003-.8960027-.522002-1.8790058-1.369005-2.4770076-4.355014-.0750003-.3780012.0730002-.7650024.3810011-.9960031 1.0230032-.7680024 2.246007-.9470029 3.4330107-.7730024 1.1380035.1660005 2.2330068.6670021 3.0290098 1.1940037 1.166003-1.1960037 2.225006-1.3610042 3.138009-1.2750039v2.0140062c-.23-.037-.477001-.046-.739002.028-.453001.1290004-.922003.4930015-1.461005 1.2120035-.174.232001-.440001.377002-.729002.397002-.289001.021-.573002-.085-.778002-.290001-.415001-.415002-1.252004-.9220032-2.186007-1.181004-.641002-.1780005-1.3420041-.2490007-1.9680061-.019.2590008 1.019003.5600018 1.604005.9130029 1.969006.4340013.451001.9150028.567002 1.3390041.816003.5840018.344001 1.1260031.809002 1.5370051 1.837005.075.186001.092.391002.048.588002-.289001 1.303004.255001 1.788006.661002 2.257007.371001.430001.664002.868003.768002 1.425005.095.509001.047 1.143003-.370001 2.001006-.286001.589002-.775002 1.332004-1.556005 2.293007z"></path></svg>